<!--?xml version="1.0" standalone="no"?-->
              <svg id="sw-js-blob-svg" viewBox="0 0 100 100" xmlns="http://www.w3.org/2000/svg" version="1.1">
                    <defs> 
                        <linearGradient id="sw-gradient" x1="0" x2="1" y1="1" y2="0">
                            <stop id="stop1" stop-color="rgba(184, 209, 202, 1)" offset="0%"></stop>
                            <stop id="stop2" stop-color="rgba(72, 216, 164, 1)" offset="100%"></stop>
                        </linearGradient>
                    </defs>
                <path fill="url(#sw-gradient)" d="M21.6,-28.1C27.3,-20.9,30.9,-13.5,32.4,-5.6C33.9,2.3,33.3,10.6,28.7,14.8C24.2,19,15.6,19.1,8.6,20.3C1.5,21.5,-4,23.7,-11.8,24.3C-19.6,25,-29.7,24,-32.1,18.9C-34.6,13.9,-29.5,4.8,-27.4,-4.5C-25.4,-13.8,-26.5,-23.3,-22.4,-30.8C-18.4,-38.3,-9.2,-43.8,-0.6,-43C7.9,-42.3,15.9,-35.3,21.6,-28.1Z" width="100%" height="100%" transform="translate(50 50)" stroke-width="0" style="transition: all 0.3s ease 0s;" stroke="url(#sw-gradient)"></path>
              </svg>